<svg width="17" height="16" viewBox="0 0 17 16" fill="none" xmlns="http://www.w3.org/2000/svg">
      <mask id="ten" style="mask-type:alpha" maskUnits="userSpaceOnUse" x="0" y="0" width="17" height="16">
        <rect x="0.5" width="16" height="16" fill="#D9D9D9"/>
      </mask>
      <g mask="url(#ten)">
        <path d="M8.50033 13.3337C7.01144 13.3337 5.75033 12.817 4.71699 11.7837C3.68366 10.7503 3.16699 9.48921 3.16699 8.00033C3.16699 6.51144 3.68366 5.25033 4.71699 4.21699C5.75033 3.18366 7.01144 2.66699 8.50033 2.66699C9.26699 2.66699 10.0003 2.82533 10.7003 3.14199C11.4003 3.45866 12.0003 3.91144 12.5003 4.50033V2.66699H13.8337V7.33366H9.16699V6.00033H11.967C11.6114 5.3781 11.1253 4.88921 10.5087 4.53366C9.89199 4.1781 9.22255 4.00033 8.50033 4.00033C7.38921 4.00033 6.44477 4.38921 5.66699 5.16699C4.88921 5.94477 4.50033 6.88921 4.50033 8.00033C4.50033 9.11144 4.88921 10.0559 5.66699 10.8337C6.44477 11.6114 7.38921 12.0003 8.50033 12.0003C9.35588 12.0003 10.1281 11.7559 10.817 11.267C11.5059 10.7781 11.9892 10.1337 12.267 9.33366H13.667C13.3559 10.5114 12.7225 11.4725 11.767 12.217C10.8114 12.9614 9.72255 13.3337 8.50033 13.3337Z" fill="#364BF7"/>
      </g>
    </svg>